<svg width="41" height="87" viewBox="0 0 41 87" fill="none" xmlns="http://www.w3.org/2000/svg">
<path d="M1 46.3293C9.77447 35.6929 17.8064 22.7085 15.4083 8.14283C14.863 4.83062 13.9152 1 10.5213 1C7.28512 1 4.96103 1.67908 3.925 3.74229C2.72737 6.12733 3.58306 9.6118 3.925 12.4038C4.43897 16.6003 7.87763 20.8246 9.775 24.4314C12.7796 30.1431 14.645 36.8667 16.4917 42.9853C19.7424 53.7562 20.5 64.6792 20.5 75.8321C20.5 78.8297 16.2525 90.6809 12.2738 83.9764C8.67144 77.9061 8.71534 71.5836 9.775 64.1976C10.2039 61.2081 12.0796 57.4676 13.675 54.8512C16.8746 49.6036 19.5496 44.0991 22.6667 38.7783C28.1723 29.3803 29.275 23.2631 29.275 12.4038C29.275 8.31935 30.3981 4.91738 27.0455 2.24674C22.6432 -1.26007 18.533 4.22506 18.533 6.73399C18.533 10.8273 21.3444 19.6885 22.5042 23.7302C27.4435 40.9444 38.2398 57.7193 34.6375 76.3715C34.2595 78.3286 33.197 83.6502 30.4667 83.9764C28.7076 84.1866 26.82 82.1218 25.9188 80.0281C23.4498 74.2915 22.5042 63.4174 22.5042 57.2172C22.5042 55.5336 24.4681 34.5409 25.6499 33.0699C27.6759 30.5482 23.9068 32.7375 27.8125 32.7375C33.7781 32.7375 40 29.7186 40 23.0291" stroke="black" stroke-linecap="round"/>
</svg>